# xmcd CD database file
#
# Track frame offsets:
#	150
#	18638
#	34761
#	52331
#	65666
#	87398
#	101002
#	118269
#	135165
#	150560
#	165632
#	180666
#	194905
#
# Disc length: 2653 seconds
#
# Revision: 1
# Processed by: cddbd v1.5.1PL2 Copyright (c) Steve Scherf et al.
# Submitted via: CDex 1.51
#
DISCID=bb0a5b0d
DTITLE=Martin Newell - The Light Programme
DYEAR=2004
DGENRE=Jazz
TTITLE0=Blackout
TTITLE1=Trinity Square
TTITLE2=Jacqui
TTITLE3=My Lost Weekend
TTITLE4=The Sun Over the Yardarm
TTITLE5=Grenadine and Blue
TTITLE6=Wait for the Rain
TTITLE7=Sparkletown
TTITLE8=After the Boy Gets In
TTITLE9=Venus of the Essoldo
TTITLE10=Rosebay Railway
TTITLE11=Synergy
TTITLE12=Little Trinity
EXTD=YEAR: 2004
EXTT0=
EXTT1=
EXTT2=
EXTT3=
EXTT4=
EXTT5=
EXTT6=
EXTT7=
EXTT8=
EXTT9=
EXTT10=
EXTT11=
EXTT12=
PLAYORDER=
